<svg width="104" height="20" viewBox="0 0 104 20" fill="none" xmlns="http://www.w3.org/2000/svg">
<path d="M11.0726 20C5.30053 20 0.5 15.5676 0.5 10C0.5 4.54054 5.18623 0 11.0726 0C14.473 0 17.5305 1.37838 19.5307 3.97297L15.7303 6.40541C14.8159 5.02703 13.0442 3.97297 11.0726 3.97297C7.61507 3.97297 5.27196 6.72973 5.27196 10C5.27196 13.2703 7.61507 16.027 11.0726 16.027C13.0442 16.027 14.7301 15.1081 15.7588 13.5676L19.7021 15.7838C17.7305 18.3784 14.473 20 11.0726 20Z" fill="#2C2D31"/>
<path d="M33.211 16.3784H25.7816L24.7243 19.4595H20.1238L26.8674 0.54054H32.0966L38.8688 19.4595H34.2397L33.211 16.3784ZM27.0674 12.5946H31.9251L29.4963 5.45946L27.0674 12.5946Z" fill="#2C2D31"/>
<path d="M55.5097 15.6757V19.4595H41.3081V0.54054H45.88V15.6757H55.5097Z" fill="#2C2D31"/>
<path d="M56.2305 10C56.2305 4.51351 61.1167 0 66.8031 0C72.6037 0 77.3757 4.64865 77.3757 10C77.3757 15.4595 72.4609 20 66.8031 20C60.8596 20 56.2305 15.1892 56.2305 10ZM61.0024 10C61.1453 13.1351 63.3741 16.027 66.8031 16.027C70.2606 16.027 72.6037 12.9459 72.6037 10C72.6037 6.86486 70.0892 3.97297 66.8031 3.97297C63.3456 3.97297 61.0024 7.02703 61.0024 10Z" fill="#2C2D31"/>
<path d="M95.6746 7.08108C95.6746 9.86486 93.8172 12.2703 91.1884 13.2162L96.8461 19.4595H91.2455L85.9592 13.6216H84.9591V19.4595H80.3872V0.54054H88.7595C92.56 0.54054 95.6746 3.43243 95.6746 7.08108ZM88.0166 4.32432H84.9591V9.83784H88.0166C89.6168 9.83784 90.9312 8.59459 90.9312 7.08108C90.9312 5.56757 89.6168 4.32432 88.0166 4.32432Z" fill="#2C2D31"/>
<path d="M98.9852 0.54054H103.5V19.4595H98.9852V0.54054Z" fill="#2C2D31"/>
</svg>
