<svg width="24" height="24" viewBox="0 0 24 24" fill="none" xmlns="http://www.w3.org/2000/svg">
<path fill-rule="evenodd" clip-rule="evenodd" d="M6.70659 5.29243C6.51799 5.11027 6.26539 5.00948 6.00319 5.01176C5.74099 5.01403 5.49018 5.1192 5.30477 5.30461C5.11937 5.49002 5.0142 5.74083 5.01192 6.00303C5.00964 6.26523 5.11044 6.51783 5.29259 6.70643L10.5856 11.9994L5.29259 17.2924C5.19708 17.3847 5.1209 17.495 5.06849 17.617C5.01608 17.739 4.9885 17.8703 4.98734 18.003C4.98619 18.1358 5.01149 18.2675 5.06177 18.3904C5.11205 18.5133 5.18631 18.6249 5.2802 18.7188C5.37409 18.8127 5.48574 18.887 5.60864 18.9373C5.73154 18.9875 5.86321 19.0128 5.99599 19.0117C6.12877 19.0105 6.25999 18.9829 6.382 18.9305C6.504 18.8781 6.61435 18.8019 6.70659 18.7064L11.9996 13.4134L17.2926 18.7064C17.4812 18.8886 17.7338 18.9894 17.996 18.9871C18.2582 18.9848 18.509 18.8797 18.6944 18.6942C18.8798 18.5088 18.985 18.258 18.9873 17.9958C18.9895 17.7336 18.8888 17.481 18.7066 17.2924L13.4136 11.9994L18.7066 6.70643C18.8888 6.51783 18.9895 6.26523 18.9873 6.00303C18.985 5.74083 18.8798 5.49002 18.6944 5.30461C18.509 5.1192 18.2582 5.01403 17.996 5.01176C17.7338 5.00948 17.4812 5.11027 17.2926 5.29243L11.9996 10.5854L6.70659 5.29243Z" fill="black"/>
</svg>
