<svg width="25" height="24" viewBox="0 0 25 24" fill="none" xmlns="http://www.w3.org/2000/svg">
<path d="M11.5492 3.35156H5.54922C3.56099 3.35156 1.94922 4.96333 1.94922 6.95156V18.9517C1.94922 20.9399 3.56099 22.5517 5.54922 22.5517H17.5492C19.5374 22.5517 21.1492 20.9399 21.1492 18.9517L21.1492 12.9516M7.94922 16.5516L12.3152 15.6718C12.547 15.6251 12.7598 15.511 12.9269 15.3438L22.7006 5.56474C23.1692 5.09588 23.1689 4.33589 22.6999 3.86743L20.6295 1.79936C20.1607 1.33109 19.4011 1.33141 18.9327 1.80007L9.15798 11.5801C8.99117 11.747 8.87727 11.9594 8.83052 12.1907L7.94922 16.5516Z" stroke="white" stroke-width="2" stroke-linecap="round" stroke-linejoin="round"/>
</svg>
