<svg width="16" height="17" viewBox="0 0 16 17" fill="none" xmlns="http://www.w3.org/2000/svg">
<g clip-path="url(#clip0_446_6652)">
<path d="M8 1.6877C10.1375 1.6877 10.3906 1.69707 11.2313 1.73457C12.0125 1.76895 12.4344 1.9002 12.7156 2.00957C13.0875 2.15332 13.3563 2.32832 13.6344 2.60645C13.9156 2.8877 14.0875 3.15332 14.2313 3.5252C14.3406 3.80645 14.4719 4.23145 14.5063 5.00957C14.5438 5.85332 14.5531 6.10645 14.5531 8.24082C14.5531 10.3783 14.5438 10.6314 14.5063 11.4721C14.4719 12.2533 14.3406 12.6752 14.2313 12.9564C14.0875 13.3283 13.9125 13.5971 13.6344 13.8752C13.3531 14.1564 13.0875 14.3283 12.7156 14.4721C12.4344 14.5814 12.0094 14.7127 11.2313 14.7471C10.3875 14.7846 10.1344 14.7939 8 14.7939C5.8625 14.7939 5.60938 14.7846 4.76875 14.7471C3.9875 14.7127 3.56563 14.5814 3.28438 14.4721C2.9125 14.3283 2.64375 14.1533 2.36563 13.8752C2.08438 13.5939 1.9125 13.3283 1.76875 12.9564C1.65938 12.6752 1.52813 12.2502 1.49375 11.4721C1.45625 10.6283 1.44688 10.3752 1.44688 8.24082C1.44688 6.10332 1.45625 5.8502 1.49375 5.00957C1.52813 4.22832 1.65938 3.80645 1.76875 3.5252C1.9125 3.15332 2.0875 2.88457 2.36563 2.60645C2.64688 2.3252 2.9125 2.15332 3.28438 2.00957C3.56563 1.9002 3.99063 1.76895 4.76875 1.73457C5.60938 1.69707 5.8625 1.6877 8 1.6877ZM8 0.24707C5.82813 0.24707 5.55625 0.256445 4.70313 0.293945C3.85313 0.331445 3.26875 0.468945 2.7625 0.66582C2.23438 0.87207 1.7875 1.14395 1.34375 1.59082C0.896875 2.03457 0.625 2.48145 0.41875 3.00645C0.221875 3.51582 0.084375 4.09707 0.046875 4.94707C0.009375 5.80332 0 6.0752 0 8.24707C0 10.4189 0.009375 10.6908 0.046875 11.5439C0.084375 12.3939 0.221875 12.9783 0.41875 13.4846C0.625 14.0127 0.896875 14.4596 1.34375 14.9033C1.7875 15.3471 2.23438 15.6221 2.75938 15.8252C3.26875 16.0221 3.85 16.1596 4.7 16.1971C5.55313 16.2346 5.825 16.2439 7.99688 16.2439C10.1688 16.2439 10.4406 16.2346 11.2938 16.1971C12.1438 16.1596 12.7281 16.0221 13.2344 15.8252C13.7594 15.6221 14.2063 15.3471 14.65 14.9033C15.0938 14.4596 15.3688 14.0127 15.5719 13.4877C15.7688 12.9783 15.9063 12.3971 15.9438 11.5471C15.9813 10.6939 15.9906 10.4221 15.9906 8.2502C15.9906 6.07832 15.9813 5.80645 15.9438 4.95332C15.9063 4.10332 15.7688 3.51895 15.5719 3.0127C15.375 2.48145 15.1031 2.03457 14.6563 1.59082C14.2125 1.14707 13.7656 0.87207 13.2406 0.668945C12.7313 0.47207 12.15 0.33457 11.3 0.29707C10.4438 0.256445 10.1719 0.24707 8 0.24707Z" fill="#2C2D31"/>
<path d="M8 4.1377C5.73125 4.1377 3.89062 5.97832 3.89062 8.24707C3.89062 10.5158 5.73125 12.3564 8 12.3564C10.2688 12.3564 12.1094 10.5158 12.1094 8.24707C12.1094 5.97832 10.2688 4.1377 8 4.1377ZM8 10.9127C6.52813 10.9127 5.33437 9.71895 5.33437 8.24707C5.33437 6.7752 6.52813 5.58145 8 5.58145C9.47188 5.58145 10.6656 6.7752 10.6656 8.24707C10.6656 9.71895 9.47188 10.9127 8 10.9127Z" fill="#2C2D31"/>
<path d="M13.2312 3.975C13.2312 4.50625 12.8 4.93438 12.2719 4.93438C11.7406 4.93438 11.3125 4.50313 11.3125 3.975C11.3125 3.44375 11.7438 3.01562 12.2719 3.01562C12.8 3.01562 13.2312 3.44688 13.2312 3.975Z" fill="#2C2D31"/>
</g>
<defs>
<clipPath id="clip0_446_6652">
<rect width="16" height="16" fill="white" transform="translate(0 0.24707)"/>
</clipPath>
</defs>
</svg>
