<svg width="16" height="17" viewBox="0 0 16 17" fill="none" xmlns="http://www.w3.org/2000/svg">
<g clip-path="url(#clip0_446_6653)">
<path d="M8 0.24707C3.58176 0.24707 0 3.82883 0 8.24707C0 11.9988 2.58304 15.1469 6.06752 16.0116V10.6919H4.41792V8.24707H6.06752V7.19363C6.06752 4.47075 7.29984 3.20867 9.97312 3.20867C10.48 3.20867 11.3546 3.30819 11.7123 3.40739V5.62339C11.5235 5.60355 11.1955 5.59363 10.7882 5.59363C9.47648 5.59363 8.9696 6.09059 8.9696 7.38243V8.24707H11.5827L11.1338 10.6919H8.9696V16.1885C12.9309 15.7101 16.0003 12.3373 16.0003 8.24707C16 3.82883 12.4182 0.24707 8 0.24707Z" fill="#2C2D31"/>
</g>
<defs>
<clipPath id="clip0_446_6653">
<rect width="16" height="16" fill="white" transform="translate(0 0.24707)"/>
</clipPath>
</defs>
</svg>
