<svg width="16" height="17" viewBox="0 0 16 17" fill="none" xmlns="http://www.w3.org/2000/svg">
<g clip-path="url(#clip0_446_6651)">
<path d="M14.8156 0.24707H1.18125C0.528125 0.24707 0 0.762695 0 1.4002V15.0908C0 15.7283 0.528125 16.2471 1.18125 16.2471H14.8156C15.4688 16.2471 16 15.7283 16 15.0939V1.4002C16 0.762695 15.4688 0.24707 14.8156 0.24707ZM4.74687 13.8814H2.37188V6.24395H4.74687V13.8814ZM3.55938 5.20332C2.79688 5.20332 2.18125 4.5877 2.18125 3.82832C2.18125 3.06895 2.79688 2.45332 3.55938 2.45332C4.31875 2.45332 4.93437 3.06895 4.93437 3.82832C4.93437 4.58457 4.31875 5.20332 3.55938 5.20332ZM13.6344 13.8814H11.2625V10.1689C11.2625 9.28457 11.2469 8.14395 10.0281 8.14395C8.79375 8.14395 8.60625 9.10957 8.60625 10.1064V13.8814H6.2375V6.24395H8.5125V7.2877H8.54375C8.85938 6.6877 9.63438 6.05332 10.7875 6.05332C13.1906 6.05332 13.6344 7.63457 13.6344 9.69082V13.8814Z" fill="#2C2D31"/>
</g>
<defs>
<clipPath id="clip0_446_6651">
<rect width="16" height="16" fill="white" transform="translate(0 0.24707)"/>
</clipPath>
</defs>
</svg>
